<?xml version="1.0" standalone="no"?><!DOCTYPE svg PUBLIC "-//W3C//DTD SVG 1.1//EN" "http://www.w3.org/Graphics/SVG/1.1/DTD/svg11.dtd"><svg t="1609205758088" class="icon" viewBox="0 0 1024 1024" version="1.1" xmlns="http://www.w3.org/2000/svg" p-id="1083" xmlns:xlink="http://www.w3.org/1999/xlink" width="24" height="24"><defs><style type="text/css"></style></defs><path d="M272.839111 375.011556m-91.022222 0a91.022222 91.022222 0 1 0 182.044444 0 91.022222 91.022222 0 1 0-182.044444 0Z" p-id="1084" fill="#1296db"></path><path d="M324.949333 855.608889L637.155556 552.049778l-14.336-16.839111a119.466667 119.466667 0 0 0-14.108445 12.060444l-149.504 159.288889a121.742222 121.742222 0 0 1-180.906667-3.640889 121.514667 121.514667 0 0 0-174.990222-9.784889L72.135111 721.351111V159.288889a36.181333 36.181333 0 0 1 35.953778-37.319111h339.512889L477.866667 57.571556H108.088889A100.807111 100.807111 0 0 0 7.509333 159.288889v705.422222a100.807111 100.807111 0 0 0 100.579556 100.579556h292.636444z" p-id="1085" fill="#1296db"></path><path d="M910.222222 57.571556H585.272889l-30.492445 64.398222H910.222222A36.181333 36.181333 0 0 1 945.493333 159.288889v560.696889l-159.288889-172.032a121.969778 121.969778 0 0 0-54.158222-33.223111l37.091556 43.235555-318.577778 310.158222 68.266667 98.076445H910.222222A100.579556 100.579556 0 0 0 1010.119111 864.711111V159.288889A100.579556 100.579556 0 0 0 910.222222 57.571556z" p-id="1086" fill="#1296db"></path></svg>